<mxfile host="app.diagrams.net" modified="2023-08-20T17:09:29.935Z" agent="Mozilla/5.0 (Windows NT 10.0; Win64; x64) AppleWebKit/537.36 (KHTML, like Gecko) Chrome/115.0.0.0 Safari/537.36 Edg/115.0.1901.203" etag="jPjRv2XUJ2mU6R5n7t22" version="21.6.8" type="device">
  <diagram name="第 1 页" id="_SCNAAD37bkoECD7s_Q6">
    <mxGraphModel dx="794" dy="462" grid="1" gridSize="10" guides="1" tooltips="1" connect="1" arrows="1" fold="1" page="1" pageScale="1" pageWidth="827" pageHeight="1169" math="0" shadow="0">
      <root>
        <mxCell id="0" />
        <mxCell id="1" parent="0" />
        <mxCell id="ve5WCKMZsPHzyE_c0uWf-18" value="" style="edgeStyle=orthogonalEdgeStyle;rounded=0;orthogonalLoop=1;jettySize=auto;html=1;" edge="1" parent="1" source="ve5WCKMZsPHzyE_c0uWf-1" target="ve5WCKMZsPHzyE_c0uWf-17">
          <mxGeometry relative="1" as="geometry" />
        </mxCell>
        <mxCell id="ve5WCKMZsPHzyE_c0uWf-1" value="dim_users" style="rounded=0;whiteSpace=wrap;html=1;" vertex="1" parent="1">
          <mxGeometry x="80" y="230" width="120" height="60" as="geometry" />
        </mxCell>
        <mxCell id="ve5WCKMZsPHzyE_c0uWf-16" value="" style="edgeStyle=orthogonalEdgeStyle;rounded=0;orthogonalLoop=1;jettySize=auto;html=1;" edge="1" parent="1" source="ve5WCKMZsPHzyE_c0uWf-2" target="ve5WCKMZsPHzyE_c0uWf-7">
          <mxGeometry relative="1" as="geometry" />
        </mxCell>
        <mxCell id="ve5WCKMZsPHzyE_c0uWf-24" value="" style="edgeStyle=orthogonalEdgeStyle;rounded=0;orthogonalLoop=1;jettySize=auto;html=1;" edge="1" parent="1" source="ve5WCKMZsPHzyE_c0uWf-2" target="ve5WCKMZsPHzyE_c0uWf-23">
          <mxGeometry relative="1" as="geometry" />
        </mxCell>
        <mxCell id="ve5WCKMZsPHzyE_c0uWf-2" value="dim_jobs" style="rounded=0;whiteSpace=wrap;html=1;" vertex="1" parent="1">
          <mxGeometry x="650" y="230" width="120" height="60" as="geometry" />
        </mxCell>
        <mxCell id="ve5WCKMZsPHzyE_c0uWf-3" value="fact_jobStatus" style="rounded=0;whiteSpace=wrap;html=1;" vertex="1" parent="1">
          <mxGeometry x="354" y="230" width="116" height="60" as="geometry" />
        </mxCell>
        <mxCell id="ve5WCKMZsPHzyE_c0uWf-4" value="dim_dates" style="rounded=0;whiteSpace=wrap;html=1;" vertex="1" parent="1">
          <mxGeometry x="200" y="50" width="120" height="60" as="geometry" />
        </mxCell>
        <mxCell id="ve5WCKMZsPHzyE_c0uWf-5" value="dim_countries" style="rounded=0;whiteSpace=wrap;html=1;" vertex="1" parent="1">
          <mxGeometry x="500" y="50" width="120" height="60" as="geometry" />
        </mxCell>
        <mxCell id="ve5WCKMZsPHzyE_c0uWf-6" value="dim_times" style="rounded=0;whiteSpace=wrap;html=1;" vertex="1" parent="1">
          <mxGeometry x="353.5" y="50" width="120" height="60" as="geometry" />
        </mxCell>
        <mxCell id="ve5WCKMZsPHzyE_c0uWf-15" value="" style="edgeStyle=orthogonalEdgeStyle;rounded=0;orthogonalLoop=1;jettySize=auto;html=1;" edge="1" parent="1" source="ve5WCKMZsPHzyE_c0uWf-7" target="ve5WCKMZsPHzyE_c0uWf-3">
          <mxGeometry relative="1" as="geometry" />
        </mxCell>
        <mxCell id="ve5WCKMZsPHzyE_c0uWf-7" value="has" style="rhombus;whiteSpace=wrap;html=1;" vertex="1" parent="1">
          <mxGeometry x="520" y="220" width="80" height="80" as="geometry" />
        </mxCell>
        <mxCell id="ve5WCKMZsPHzyE_c0uWf-19" value="" style="edgeStyle=orthogonalEdgeStyle;rounded=0;orthogonalLoop=1;jettySize=auto;html=1;" edge="1" parent="1" source="ve5WCKMZsPHzyE_c0uWf-17" target="ve5WCKMZsPHzyE_c0uWf-3">
          <mxGeometry relative="1" as="geometry" />
        </mxCell>
        <mxCell id="ve5WCKMZsPHzyE_c0uWf-17" value="has" style="rhombus;whiteSpace=wrap;html=1;" vertex="1" parent="1">
          <mxGeometry x="240" y="220" width="80" height="80" as="geometry" />
        </mxCell>
        <mxCell id="ve5WCKMZsPHzyE_c0uWf-21" value="dim_files" style="rounded=0;whiteSpace=wrap;html=1;" vertex="1" parent="1">
          <mxGeometry x="510" y="370" width="120" height="60" as="geometry" />
        </mxCell>
        <mxCell id="ve5WCKMZsPHzyE_c0uWf-25" value="" style="edgeStyle=orthogonalEdgeStyle;rounded=0;orthogonalLoop=1;jettySize=auto;html=1;" edge="1" parent="1" source="ve5WCKMZsPHzyE_c0uWf-23" target="ve5WCKMZsPHzyE_c0uWf-21">
          <mxGeometry relative="1" as="geometry" />
        </mxCell>
        <mxCell id="ve5WCKMZsPHzyE_c0uWf-23" value="has" style="rhombus;whiteSpace=wrap;html=1;rounded=0;" vertex="1" parent="1">
          <mxGeometry x="670" y="360" width="80" height="80" as="geometry" />
        </mxCell>
      </root>
    </mxGraphModel>
  </diagram>
</mxfile>
